<?xml version="1.0" encoding="UTF-8"?>
<svg width="512px" height="512px" viewBox="0 0 512 512" version="1.1" xmlns="http://www.w3.org/2000/svg" xmlns:xlink="http://www.w3.org/1999/xlink">
    <title>CuddleKit@1x</title>
    <defs>
        <linearGradient x1="1.30973359e-14%" y1="58.6472696%" x2="100%" y2="58.6472697%" id="linearGradient-1">
            <stop stop-color="color(display-p3 0.557 0.557 0.557)" offset="0%"></stop>
            <stop stop-color="color(display-p3 0.850 0.850 0.850)" offset="15.8046875%"></stop>
            <stop stop-color="color(display-p3 1.000 1.000 1.000)" offset="36.0985893%"></stop>
            <stop stop-color="color(display-p3 0.879 0.879 0.879)" offset="59.7781997%"></stop>
            <stop stop-color="color(display-p3 0.622 0.622 0.622)" offset="100%"></stop>
        </linearGradient>
    </defs>
    <g id="CuddleKit" stroke="none" fill="none" fill-rule="evenodd">
        <g id="Group" stroke-width="1" transform="translate(47.6421, 106.7267)">
            <path d="M220.464629,111.277357 L340.343,181.313 L416.716559,181.324774 L416.716559,239.911245 C416.683936,243.963193 415.625073,248.061684 413.43462,251.811013 C411.35165,255.376366 408.384025,258.343991 404.818672,260.426961 L220.464629,368.131279 C212.984967,372.501088 203.730902,372.501088 196.25124,368.131279 L11.8971969,260.426961 C4.02311298,255.826721 -0.259507798,247.434059 0.0121814762,238.917711 L0.0125578659,181.266664 L76.435,181.277 L196.25124,111.277357 C203.730902,106.907548 212.984967,106.907548 220.464629,111.277357 Z" id="Bottom" fill="color(display-p3 0.690 0.580 1.000)"></path>
            <path d="M220.464629,55.2773569 L340.343,125.313 L416.716559,125.324774 L416.716559,183.911245 C416.683936,187.963193 415.625073,192.061684 413.43462,195.811013 C411.35165,199.376366 408.384025,202.343991 404.818672,204.426961 L220.464629,312.131279 C212.984967,316.501088 203.730902,316.501088 196.25124,312.131279 L11.8971969,204.426961 C4.02311298,199.826721 -0.259507798,191.434059 0.0121814762,182.917711 L0.0125578659,125.266664 L76.435,125.277 L196.25124,55.2773569 C203.730902,50.9075477 212.984967,50.9075477 220.464629,55.2773569 Z" id="Middle" fill="color(display-p3 0.580 0.898 1.000)"></path>
            <path d="M220.464629,3.27735686 L340.343,73.313 L416.716559,73.3247744 L416.716559,131.911245 C416.683936,135.963193 415.625073,140.061684 413.43462,143.811013 C411.35165,147.376366 408.384025,150.343991 404.818672,152.426961 L220.464629,260.131279 C212.984967,264.501088 203.730902,264.501088 196.25124,260.131279 L11.8971969,152.426961 C4.02311298,147.826721 -0.259507798,139.434059 0.0121814762,130.917711 L0.0125578659,73.2666645 L76.435,73.277 L196.25124,3.27735686 C203.730902,-1.09245229 212.984967,-1.09245229 220.464629,3.27735686 Z" id="Top" fill="color(display-p3 1.000 0.702 0.702)"></path>
            <path d="M416.716559,239.911245 C416.683936,243.963193 415.625073,248.061684 413.43462,251.811013 C411.35165,255.376366 408.384025,258.343991 404.818672,260.426961 L220.464629,368.131279 C212.984967,372.501088 203.730902,372.501088 196.25124,368.131279 L11.8971969,260.426961 C4.02311298,255.826721 -0.259507798,247.434059 0.0121814762,238.917711 L0.0112592241,184.416685 C0,183.91795 0,183.418044 0.0121814762,182.917711 L0.0112592241,132.416685 C0,131.91795 0,131.418044 0.0121814762,130.917711 L0.0125578659,73.2666645 L76.435,73.277 L196.25124,3.27735686 C203.730902,-1.09245229 212.984967,-1.09245229 220.464629,3.27735686 L340.343,73.313 L416.716559,73.3247744 L416.716559,239.911245 Z" id="Sheen" fill="url(#linearGradient-1)" opacity="0.25" style="mix-blend-mode: normal;"></path>
        </g>
        <path d="M59.5392625,161.846333 L243.893305,54.1420147 C251.372968,49.7722055 260.627032,49.7722055 268.106695,54.1420147 L452.460738,161.846333 C463.905537,168.532676 467.763029,183.230871 461.076686,194.675671 C458.993716,198.241024 456.026091,201.208649 452.460738,203.291619 L268.106695,310.995937 C260.627032,315.365746 251.372968,315.365746 243.893305,310.995937 L59.5392625,203.291619 C48.0944627,196.605276 44.2369713,181.907081 50.9233142,170.462281 C52.9194939,167.045484 55.7281429,164.177642 59.0967272,162.111291 L59.5392625,161.846333 Z" id="Plate" fill="color(display-p3 1.000 0.898 0.843)"></path>
        <g id="KDL-Wordmark" stroke-width="1" transform="translate(85.9412, 77.0448)">
            <g id="L" transform="translate(229.2763, 4.1473)">
                <path d="M30.3627784,133.156438 C25.6135522,133.452128 21.8850473,132.406475 19.1778528,130.019775 C16.4706584,127.632781 14.9653522,124.009775 14.6622289,119.150462 L8.88197109,26.4766464 C8.5862123,21.732962 9.74155688,17.8862909 12.348594,14.9365448 C15.0640367,11.8639331 18.8546981,10.1762371 23.719989,9.87351574 C28.70105,9.56361543 32.7297324,10.7647623 35.8063308,13.4770153 C38.8752701,16.0735815 40.5579137,19.7436627 40.853967,24.4871411 L45.9525657,106.227799 L85.9182971,103.741064 C95.9958947,103.114085 101.304235,107.139288 101.846263,115.816673 C102.120223,120.213179 101.04795,123.531964 98.629444,125.773026 C96.3258248,128.007027 92.6258942,129.282464 87.5296522,129.599631 L30.3627784,133.156438 Z" id="Path" fill="color(display-p3 0.690 0.580 1.000)"></path>
                <path d="M12.348594,14.9365448 L5.72318479,9.09536674 L5.72318479,9.09536674 L12.348594,14.9365448 Z M35.8063308,13.4770153 L29.9577303,20.0943123 L30.0254838,20.1539209 L30.094121,20.2121174 L35.8063308,13.4770153 Z M45.9525657,106.227799 L37.1319429,106.776516 L37.6813354,115.586006 L46.5004853,115.037288 L45.9525657,106.227799 Z M98.629444,125.773026 L92.6200026,119.302279 L92.5434117,119.371126 L92.4727124,119.441444 L98.629444,125.773026 Z M29.8133859,124.346949 C26.6319169,124.544958 25.4712698,123.794701 25.0261588,123.402213 L13.3295469,136.637043 C18.2988247,141.01825 24.594893,142.359004 30.9124656,141.965928 L29.8133859,124.346949 Z M25.0261588,123.402213 C24.6211106,123.045032 23.692593,121.965545 23.4825571,118.601745 L5.84190071,119.69918 C6.23840601,126.054004 8.32020614,132.220529 13.3295469,136.637043 L25.0261588,123.402213 Z M23.4825571,118.601745 L17.7022993,25.9276347 L0.0616428717,27.0253639 L5.84190071,119.69918 L23.4825571,118.601745 Z M17.7022993,25.9276347 C17.5196594,23.0016321 18.2316604,21.6176284 18.9740032,20.7777229 L5.72318479,9.09539616 C1.25145336,14.1549241 -0.347529391,20.4643508 0.0616428717,27.0253639 L17.7022993,25.9276347 Z M18.9740032,20.7777229 C19.8512638,19.7851181 21.2714362,18.8695396 24.2693816,18.6830051 L23.1703019,1.06405578 C16.43796,1.48296403 10.2771042,3.9427187 5.72318479,9.09536674 L18.9740032,20.7777229 Z M24.2693816,18.6830051 C27.4502614,18.4850844 29.0059408,19.2550541 29.9577303,20.0943123 L41.6546367,6.85971828 C36.4538187,2.27447056 29.9518387,0.642117072 23.1703019,1.06405578 L24.2693816,18.6830051 Z M30.094121,20.2121174 C30.992886,20.9722896 31.8574797,22.2160688 32.0336388,25.0361528 L49.6731169,23.9384237 C49.2577585,17.2712861 46.7567703,11.1748735 41.518246,6.74191321 L30.094121,20.2121174 Z M32.0336388,25.0361528 L37.1319429,106.776516 L54.7723047,105.679081 L49.6731169,23.9384237 L32.0336388,25.0361528 Z M46.5004853,115.037288 L86.4662167,112.550554 L85.3674316,94.9315748 L45.4017002,97.4183093 L46.5004853,115.037288 Z M86.4662167,112.550554 C90.4401072,112.30341 91.8305269,113.103684 92.11627,113.320523 C92.1368906,113.337 92.8615586,113.753907 93.0265236,116.36539 L110.666002,115.267661 C110.288939,109.202053 108.088423,103.267372 102.800703,99.2589401 C97.7781065,95.4505762 91.4711388,94.5517388 85.3674316,94.9315748 L86.4662167,112.550554 Z M93.0265236,116.36539 C93.111952,117.739685 92.9587701,118.520835 92.8379921,118.892727 C92.7378348,119.201068 92.6553522,119.269621 92.6200026,119.302279 L104.638885,132.243773 C109.605512,127.641902 111.046011,121.357101 110.666002,115.267661 L93.0265236,116.36539 Z M92.4727124,119.441444 C92.3548802,119.55619 91.1471003,120.530935 86.9817325,120.790142 L88.0805177,138.409121 C94.1076339,138.033992 100.299715,136.457864 104.786176,132.104607 L92.4727124,119.441444 Z M86.9817325,120.790142 L29.8133859,124.346949 L30.9124656,141.965928 L88.0805177,138.409121 L86.9817325,120.790142 Z" id="Shape" fill="color(display-p3 0.690 0.580 1.000)" fill-rule="nonzero"></path>
                <path d="M30.381337,132.861631 C25.6318162,133.157321 21.9033113,132.111668 19.1961168,129.724968 C16.4889224,127.337974 14.9836162,123.714968 14.6807875,118.855655 L8.90023508,26.1818395 C8.60447629,21.4381846 9.75982087,17.5915135 12.366858,14.6417674 C15.0825952,11.5691262 18.8729621,9.88145964 23.738253,9.57873826 C28.719314,9.26880852 32.7479964,10.4699848 35.8245948,13.1822378 C38.8938286,15.778804 40.5761777,19.4488852 40.872231,24.1926284 L45.9702405,105.932992 L85.9359719,103.446257 C96.0135695,102.819278 101.321909,106.844481 101.863938,115.521866 C102.137897,119.918372 101.065624,123.237157 98.6471189,125.478219 C96.3464454,127.71222 92.6465148,128.987657 87.547327,129.304824 L30.381337,132.861631 Z" id="Path" fill="color(display-p3 1.000 1.000 1.000)"></path>
            </g>
            <g id="D" transform="translate(103.3895, 27.3152)" fill-rule="nonzero">
                <path d="M21.2166444,129.93444 C16.5289855,129.11769 13.1466126,127.234103 11.070115,124.283386 C8.99332269,121.332963 8.36380424,117.516656 9.18155961,112.834463 L25.1867053,21.1907059 C26.0044607,16.5086014 27.8903648,13.1304732 30.8447123,11.0563507 C33.7990597,8.98222821 37.6200629,8.35354218 42.3077218,9.17023381 L76.9524463,15.2059492 C90.3299343,17.5365419 101.39202,21.9937458 110.138997,28.5773547 C119.020009,35.0669315 125.245378,43.2706251 128.815104,53.1887296 C132.384536,63.1068342 133.082397,74.2894898 130.908688,86.7369905 C128.714652,99.2989423 124.24734,109.699565 117.506749,117.938859 C110.900193,126.084003 102.31877,131.708283 91.7621845,134.811406 C81.3201908,137.93424 69.3531541,138.320549 55.8613689,135.970038 L21.2166444,129.93444 Z M58.0592337,110.229747 C69.836266,112.281332 79.1388225,110.960291 85.9671976,106.26633 C92.9299014,101.478218 97.4484711,93.1456572 99.5226122,81.2692345 C101.597048,69.3925176 100.15979,60.0813857 95.2114271,53.3358389 C90.3773617,46.6100047 82.0719601,42.2211478 70.2952224,40.1692682 L54.8595007,37.4801114 L42.6235121,107.54059 L58.0592337,110.229747 Z" id="Shape" fill="color(display-p3 0.580 0.898 1.000)"></path>
                <path d="M110.138997,28.5773547 L104.820053,35.626535 L104.870131,35.664195 L104.920799,35.7012665 L110.138997,28.5773547 Z M117.506749,117.938859 L110.663351,112.354004 L110.651567,112.368421 L110.639784,112.382838 L117.506749,117.938859 Z M91.7621845,134.811406 L89.2670879,126.343798 L89.2470565,126.349682 L89.227025,126.355861 L91.7621845,134.811406 Z M85.9671976,106.26633 L90.9777167,113.537351 L90.9791896,113.536174 L85.9671976,106.26633 Z M95.2114271,53.3358389 L88.0322066,58.4828968 L88.057246,58.5176145 L88.0825799,58.5523323 L95.2114271,53.3358389 Z M54.8595007,37.4801114 L56.378063,28.785073 L47.672032,27.2683768 L46.1534697,35.9634152 L54.8595007,37.4801114 Z M42.6235121,107.54059 L33.9177756,106.023894 L32.3992134,114.719226 L41.1049498,116.235923 L42.6235121,107.54059 Z M22.7355013,121.239108 C19.5952735,120.692156 18.6411274,119.692401 18.2997087,119.207529 L3.84022665,129.359537 C7.65209784,134.775511 13.4626975,137.543224 19.6980821,138.629773 L22.7355013,121.239108 Z M18.2997087,119.207529 C17.9585845,118.722363 17.3396709,117.487528 17.8875906,114.351159 L0.47552861,111.317767 C-0.612062459,117.545489 0.0280608866,123.94327 3.84022665,129.359537 L18.2997087,119.207529 Z M17.8875906,114.351159 L33.8927363,22.7074315 L16.4809689,19.6739508 L0.47552861,111.317767 L17.8875906,114.351159 Z M33.8927363,22.7074315 C34.440656,19.5711803 35.4413458,18.618295 35.9268144,18.2773252 L25.7626101,3.83537627 C20.3396784,7.64265152 17.56856,13.4459931 16.4809689,19.6739508 L33.8927363,22.7074315 Z M35.9268144,18.2773252 C36.4125776,17.9363554 37.6492264,17.3184378 40.7891595,17.8655076 L43.8265787,0.474989455 C37.5908994,-0.611382818 31.1852473,0.028130445 25.7626101,3.83537627 L35.9268144,18.2773252 Z M40.7891595,17.8655076 L75.433884,23.9011935 L78.4710086,6.51067538 L43.8265787,0.474989455 L40.7891595,17.8655076 Z M75.433884,23.9011935 C87.7564793,26.0479586 97.4278505,30.0622754 104.820053,35.626535 L115.457648,21.5285569 C105.356189,13.9251279 92.9033892,9.02506642 78.4710086,6.51067538 L75.433884,23.9011935 Z M104.920799,35.7012665 C112.4435,41.1981502 117.55182,47.9872413 120.498509,56.1744587 L137.131405,50.2030006 C132.938936,38.554303 125.596518,28.9360071 115.357196,21.4538549 L104.920799,35.7012665 Z M120.498509,56.1744587 C123.455213,64.3890383 124.165446,73.9817373 122.202657,85.2202943 L139.614424,88.2539809 C141.999642,74.5972423 141.314153,61.8246301 137.131405,50.2030006 L120.498509,56.1744587 Z M122.202657,85.2202943 C120.217773,96.5847769 116.269806,105.501068 110.663351,112.354004 L124.349854,123.523714 C132.224873,113.898063 137.211531,102.012813 139.614424,88.2539809 L122.202657,85.2202943 Z M110.639784,112.382838 C105.217736,119.067481 98.1925814,123.720252 89.2670879,126.343798 L94.2575756,143.278719 C106.444664,139.696315 116.582356,133.100525 124.37342,123.494881 L110.639784,112.382838 Z M89.227025,126.355861 C80.3928515,128.997943 69.8583596,129.448686 57.3799312,127.274705 L54.3428066,144.665371 C68.8479486,147.192413 82.2475301,146.870832 94.2973439,143.26695 L89.227025,126.355861 Z M57.3799312,127.274705 L22.7355013,121.239108 L19.6980821,138.629773 L54.3428066,144.665371 L57.3799312,127.274705 Z M56.5406714,118.925079 C69.5885239,121.198211 81.5402424,120.024868 90.9777167,113.537351 L80.9569731,98.995603 C76.7374025,101.896009 70.0840082,103.364747 59.577796,101.534414 L56.5406714,118.925079 Z M90.9791896,113.536174 C100.605195,106.916258 105.922962,95.9881018 108.228643,82.7859307 L90.8168758,79.7525383 C88.9739804,90.3032126 85.254902,96.0398843 80.9555002,98.9964857 L90.9791896,113.536174 Z M108.228643,82.7859307 C110.531673,69.5990589 109.23817,57.5222735 102.340274,48.1190512 L88.0825799,58.5523323 C91.0817036,62.6404979 92.6621278,69.1862704 90.8168758,79.7525383 L108.228643,82.7859307 Z M102.390648,48.1884868 C95.7095627,38.8929485 84.8613425,33.7473617 71.8137847,31.4742298 L68.7766601,48.8646008 C79.2825777,50.6949339 85.0451608,54.3270609 88.0322066,58.4828968 L102.390648,48.1884868 Z M71.8137847,31.4742298 L56.378063,28.785073 L53.3409385,46.175444 L68.7766601,48.8646008 L71.8137847,31.4742298 Z M46.1534697,35.9634152 L33.9177756,106.023894 L51.3295431,109.057286 L63.5655317,38.9971018 L46.1534697,35.9634152 Z M41.1049498,116.235923 L56.5406714,118.925079 L59.577796,101.534414 L44.1423689,98.8452574 L41.1049498,116.235923 Z" id="Shape" fill="color(display-p3 0.580 0.898 1.000)"></path>
                <path d="M20.9220639,129.93444 C16.234405,129.11769 12.8520322,127.234103 10.7755345,124.283386 C8.69874223,121.332963 8.06922378,117.516656 8.88697914,112.834463 L24.8921248,21.1907059 C25.7098802,16.5086014 27.5957843,13.1304732 30.5501318,11.0563507 C33.5044793,8.98222821 37.3254824,8.35354218 42.0131413,9.17023381 L76.6578658,15.2059492 C90.0353538,17.5365419 101.097439,21.9937458 109.844417,28.5773547 C118.725429,35.0669315 124.950798,43.2706251 128.520524,53.1887296 C132.089955,63.1068342 132.787816,74.2894898 130.614107,86.7369905 C128.420072,99.2989423 123.952759,109.699565 117.212169,117.938859 C110.605613,126.084003 102.024189,131.708283 91.467604,134.811406 C81.0256103,137.93424 69.0585736,138.320549 55.5667884,135.970038 L20.9220639,129.93444 Z M57.7646533,110.229747 C69.5416856,112.281332 78.844242,110.960291 85.6726171,106.26633 C92.635321,101.478218 97.1538907,93.1456572 99.2280317,81.2692345 C101.302467,69.3925176 99.8652093,60.0813857 94.9168466,53.3358389 C90.0827812,46.6100047 81.7773797,42.2211478 70.0006419,40.1692682 L54.5649203,37.4801114 L42.3289316,107.54059 L57.7646533,110.229747 Z" id="Shape" fill="color(display-p3 1.000 1.000 1.000)"></path>
            </g>
            <g id="K" transform="translate(-1, -1)">
                <path d="M119.990474,108.00129 C123.234394,110.644254 125.012187,113.872125 125.324148,117.684902 C125.636109,121.497679 124.464268,124.966221 121.808625,128.090527 C119.152982,131.215127 115.858394,132.937776 111.92545,133.258768 C107.645196,133.608006 103.560838,132.080423 99.6723759,128.675727 L46.0796469,82.1062396 L49.4254918,123.006432 C49.8225862,127.858977 48.6931647,131.847402 46.0375219,134.971708 C43.3724524,137.980681 39.5526276,139.68803 34.5786365,140.094052 C29.7198263,140.490658 25.7312068,139.420292 22.6124835,136.88354 C19.5998091,134.221451 17.8950719,130.464281 17.4979775,125.611736 L9.91311973,32.8931991 C9.52545184,28.1562817 10.6065621,24.2880444 13.156156,21.2886048 C15.8117989,18.1641812 19.5688781,16.403725 24.4273937,16.0072362 C29.4016794,15.601303 33.4527499,16.7245408 36.5811944,19.3769791 C39.6999178,21.9138779 41.4529661,25.5508301 41.840634,30.2878945 L44.959652,68.4150774 L89.7061297,15.3905837 C92.4586895,12.0256365 95.7435563,10.1873889 99.5610245,9.8758704 C103.378493,9.56435189 106.851302,10.7348118 109.979452,13.3872207 C113.09847,15.9241195 114.813812,19.0989133 115.125478,22.9116316 C115.437439,26.7243498 114.048492,30.3849866 110.958343,33.8938361 L78.2366394,71.6311795 L119.990474,108.00129 Z" id="Path" fill="color(display-p3 1.000 0.698 0.698)"></path>
                <path d="M119.990474,108.00129 L114.181642,114.653275 L114.291521,114.748896 L114.404345,114.840986 L119.990474,108.00129 Z M121.808625,128.090527 L115.071275,122.378275 L121.808625,128.090527 Z M99.6723759,128.675727 L105.497999,122.038453 L105.485627,122.027567 L105.47296,122.016681 L99.6723759,128.675727 Z M46.0796469,82.1062396 L51.8802308,75.447193 L35.5039137,61.2167284 L37.271691,82.8250154 L46.0796469,82.1062396 Z M46.0375219,134.971708 L52.6564503,140.820183 L52.7162501,140.752807 L52.7745771,140.684254 L46.0375219,134.971708 Z M22.6124835,136.88354 L16.756813,143.494335 L16.8920255,143.613787 L17.0316566,143.727356 L22.6124835,136.88354 Z M13.156156,21.2886048 L6.41889465,15.576265 L13.156156,21.2886048 Z M36.5811944,19.3769791 L30.8616202,26.1058144 L30.930552,26.164099 L31.0003676,26.2209715 L36.5811944,19.3769791 Z M44.959652,68.4150774 L36.1516961,69.1338531 L37.8976745,90.4791088 L51.7170332,74.1034973 L44.959652,68.4150774 Z M89.7061297,15.3905837 L96.4635109,21.0790036 L96.5071088,21.0273094 L96.5501176,20.9749385 L89.7061297,15.3905837 Z M109.979452,13.3872207 L104.260172,20.1160559 L104.328809,20.1743406 L104.398919,20.231213 L109.979452,13.3872207 Z M110.958343,33.8938361 L104.322623,28.0644856 L104.300235,28.0897883 L104.277847,28.1156796 L110.958343,33.8938361 Z M78.2366394,71.6311795 L71.5561436,65.8527288 L65.7909094,72.501772 L72.4281018,78.2831649 L78.2366394,71.6311795 Z M114.404345,114.840986 C115.977404,116.122602 116.419275,117.219743 116.516192,118.403678 L134.132398,116.966126 C133.605394,110.524507 130.491384,105.166201 125.576603,101.161887 L114.404345,114.840986 Z M116.516192,118.403678 C116.622536,119.705006 116.330017,120.897474 115.071275,122.378275 L128.54568,133.802778 C132.598518,129.034968 134.649682,123.290058 134.132398,116.966126 L116.516192,118.403678 Z M115.071275,122.378275 C113.865263,123.797585 112.700786,124.339535 111.20579,124.461342 L112.64511,142.055901 C119.016002,141.536017 124.440701,138.632669 128.54568,133.802778 L115.071275,122.378275 Z M111.20579,124.461342 C109.786796,124.577264 107.981902,124.213316 105.497999,122.038453 L93.8467527,135.313002 C99.1397744,139.947237 105.503596,142.638747 112.64511,142.055901 L111.20579,124.461342 Z M105.47296,122.016681 L51.8802308,75.447193 L40.279063,88.7652862 L93.871792,135.334774 L105.47296,122.016681 Z M37.271691,82.8250154 L40.6175359,123.725207 L58.2337422,122.287656 L54.8876027,81.3874639 L37.271691,82.8250154 Z M40.6175359,123.725207 C40.8620377,126.71535 40.158285,128.249993 39.3004667,129.259457 L52.7745771,140.684254 C57.2280445,135.444517 58.7828402,129.00231 58.2337422,122.287656 L40.6175359,123.725207 Z M39.4185935,129.123234 C38.6090863,130.03737 37.1353003,131.029475 33.8586818,131.29692 L35.2982965,148.891184 C41.9699548,148.34688 48.1358185,145.923991 52.6564503,140.820183 L39.4185935,129.123234 Z M33.8586818,131.29692 C30.7632303,131.549359 29.1819224,130.843529 28.1933103,130.03943 L17.0316566,143.727356 C22.2807859,147.997054 28.6767169,149.431663 35.2982965,148.891184 L33.8586818,131.29692 Z M28.4681539,130.272451 C27.5131241,129.428632 26.5589779,127.984902 26.3062279,124.89296 L8.69002164,126.330512 C9.23116596,132.943955 11.6867887,139.014564 16.756813,143.494335 L28.4681539,130.272451 Z M26.3062279,124.89296 L18.7210756,32.1744233 L1.10504606,33.6119748 L8.69002164,126.330512 L26.3062279,124.89296 Z M18.7210756,32.1744233 C18.4821708,29.2525397 19.1670704,27.855002 19.8932112,27.0008858 L6.41889465,15.576265 C2.0459066,20.7211162 0.569056906,27.0603179 1.10504606,33.6119748 L18.7210756,32.1744233 Z M19.8932112,27.0008858 C20.7510295,25.9915693 22.1532325,25.0487757 25.1470538,24.8044567 L23.7077336,7.20998628 C16.9845237,7.75864488 10.8722737,10.3367636 6.41889465,15.576265 L19.8932112,27.0008858 Z M25.1470538,24.8044567 C28.3235149,24.5452502 29.8936288,25.2850625 30.8616202,26.1058144 L42.3004741,12.6481145 C37.0118711,8.16404851 30.4795493,6.65735573 23.7077336,7.20998628 L25.1470538,24.8044567 Z M31.0003676,26.2209715 C31.9132724,26.96352 32.8020217,28.1904111 33.0323836,31.0066702 L50.6485899,29.5691188 C50.1039106,22.9111314 47.4862686,16.8640592 42.1617267,12.5329868 L31.0003676,26.2209715 Z M33.0323836,31.0066702 L36.1516961,69.1338531 L53.7676078,67.6963017 L50.6485899,29.5691188 L33.0323836,31.0066702 Z M51.7170332,74.1034973 L96.4635109,21.0790036 L82.9487484,9.7021344 L38.2022707,62.7266576 L51.7170332,74.1034973 Z M96.5501176,20.9749385 C98.0091746,19.191239 99.1910314,18.7620331 100.280685,18.6731203 L98.8413644,1.07864993 C92.2960811,1.61277414 86.9082044,4.86003395 82.8624364,9.80619947 L96.5501176,20.9749385 Z M100.280685,18.6731203 C101.583614,18.5667603 102.777549,18.8589781 104.260172,20.1160559 L115.698731,6.6583855 C110.925055,2.61061607 105.173077,0.561914031 98.8413644,1.07864993 L100.280685,18.6731203 Z M104.398919,20.231213 C105.756641,21.3356503 106.212357,22.344496 106.317522,23.6304367 L123.933728,22.1928558 C123.414972,15.8533599 120.440004,10.5125592 115.560279,6.54322839 L104.398919,20.231213 Z M106.317522,23.6304367 C106.392345,24.5443087 106.204698,25.9274003 104.322623,28.0644856 L117.594062,39.7234808 C121.892286,34.8429848 124.482826,28.9044793 123.933728,22.1928558 L106.317522,23.6304367 Z M104.277847,28.1156796 L71.5561436,65.8527288 L84.9171351,77.4096302 L117.638838,39.6722868 L104.277847,28.1156796 Z M72.4281018,78.2831649 L114.181642,114.653275 L125.799012,101.349304 L84.0454715,64.9791941 L72.4281018,78.2831649 Z" id="Shape" fill="color(display-p3 1.000 0.702 0.702)" fill-rule="nonzero"></path>
                <path d="M119.990474,108.00129 C123.234394,110.644254 125.012187,113.872125 125.324148,117.684902 C125.636109,121.497679 124.464268,124.966221 121.808625,128.090527 C119.152982,131.215127 115.858394,132.937776 111.92545,133.258768 C107.645196,133.608006 103.560838,132.080423 99.6723759,128.675727 L46.0796469,82.1062396 L49.4254918,123.006432 C49.8225862,127.858977 48.6931647,131.847402 46.0375219,134.971708 C43.3724524,137.980681 39.5526276,139.68803 34.5786365,140.094052 C29.7198263,140.490658 25.7312068,139.420292 22.6124835,136.88354 C19.5998091,134.221451 17.8950719,130.464281 17.4979775,125.611736 L9.91311973,32.8931991 C9.52545184,28.1562817 10.6065621,24.2880444 13.156156,21.2886048 C15.8117989,18.1641812 19.5688781,16.403725 24.4273937,16.0072362 C29.4016794,15.601303 33.4527499,16.7245408 36.5811944,19.3769791 C39.6999178,21.9138779 41.4529661,25.5508301 41.840634,30.2878945 L44.959652,68.4150774 L89.7061297,15.3905837 C92.4586895,12.0256365 95.7435563,10.1873889 99.5610245,9.8758704 C103.378493,9.56435189 106.851302,10.7348118 109.979452,13.3872207 C113.09847,15.9241195 114.813812,19.0989133 115.125478,22.9116316 C115.437439,26.7243498 114.048492,30.3849866 110.958343,33.8938361 L78.2366394,71.6311795 L119.990474,108.00129 Z" id="Path" fill="color(display-p3 1.000 1.000 1.000)"></path>
            </g>
        </g>
    </g>
</svg>